<?xml version="1.0" ?><!-- Uploaded to: SVG Repo, www.svgrepo.com, Generator: SVG Repo Mixer Tools -->
<svg width="800px" height="800px" viewBox="0 0 30 30" xmlns="http://www.w3.org/2000/svg"><path d="M23.2469454,28.0528862 C24.4899194,30.654851 24.0338308,33.8656642 21.8786797,36.0208153 C19.1450096,38.7544853 14.7128548,38.7544853 11.9791847,36.0208153 C9.24551468,33.2871452 9.24551468,28.8549904 11.9791847,26.1213203 C14.1331026,23.9674025 17.3414747,23.5106032 19.9426463,24.7509224 L26.070324,18.6232447 C24.9242287,16.338549 25.1003546,13.6733064 26.5283131,11.6926818 C27.9562715,9.71205711 30.403172,8.73907701 32.8911102,9.1625932 C33.3189799,9.23467711 33.6820422,9.54051028 33.8289313,9.95258638 C33.9758203,10.3646625 33.8813218,10.8122468 33.5848337,11.108735 L31.549654,13.1439147 C31.3633323,13.3311251 31.2536806,13.5823941 31.2404989,13.8523495 L31.1480983,15.6573626 C31.1311422,15.9936296 31.2652679,16.3278788 31.5140931,16.569443 C31.7629182,16.8110071 32.1006475,16.9348438 32.4356699,16.9073616 L34.1671964,16.7696538 C34.4236818,16.7481861 34.660562,16.6393524 34.8386957,16.4611359 L36.8863996,14.413432 C37.1828878,14.1169438 37.6304722,14.0224454 38.0425483,14.1693344 C38.4546244,14.3162234 38.7604575,14.6792858 38.8325414,15.1071555 C39.2577335,17.5955974 38.2851996,20.0437095 36.3040261,21.4720636 C34.3228526,22.9004178 31.6565695,23.0757605 29.3718899,21.9279417 L23.2469454,28.0528862 Z M19.3330952,28.6669048 L15.9523549,27.7610381 L13.4774811,30.2359118 L14.3833478,33.6166522 L17.7640882,34.5225189 L20.2389619,32.0476451 L19.3330952,28.6669048 Z" fill="#4A4A4A" fill-rule="evenodd" transform="translate(-9 -9)"/></svg>